<mxfile host="app.diagrams.net" modified="2021-08-10T14:55:35.081Z" agent="5.0 (Windows NT 10.0; Win64; x64) AppleWebKit/537.36 (KHTML, like Gecko) Chrome/92.0.4515.131 Safari/537.36" etag="iVB3gUmDRhbs-2adVF3h" version="14.9.5" type="github">
  <diagram id="rc_PpM4VeP5Mi03ZELyZ" name="Page-1">
    <mxGraphModel dx="1038" dy="547" grid="1" gridSize="10" guides="1" tooltips="1" connect="1" arrows="1" fold="1" page="1" pageScale="1" pageWidth="827" pageHeight="1169" math="0" shadow="0">
      <root>
        <mxCell id="0" />
        <mxCell id="1" parent="0" />
        <mxCell id="ydIn-zL5KML8uVx8zcCh-15" value="" style="rounded=0;whiteSpace=wrap;html=1;" vertex="1" parent="1">
          <mxGeometry x="170" y="30" width="460" height="490" as="geometry" />
        </mxCell>
        <mxCell id="ydIn-zL5KML8uVx8zcCh-1" value="Admin" style="shape=umlActor;html=1;verticalLabelPosition=bottom;verticalAlign=top;align=center;" vertex="1" parent="1">
          <mxGeometry x="90" y="50" width="30" height="60" as="geometry" />
        </mxCell>
        <mxCell id="ydIn-zL5KML8uVx8zcCh-2" value="Inventory Manager" style="shape=umlActor;html=1;verticalLabelPosition=bottom;verticalAlign=top;align=center;" vertex="1" parent="1">
          <mxGeometry x="90" y="250" width="30" height="60" as="geometry" />
        </mxCell>
        <mxCell id="ydIn-zL5KML8uVx8zcCh-4" value="NotificationService" style="shape=umlActor;html=1;verticalLabelPosition=bottom;verticalAlign=top;align=center;" vertex="1" parent="1">
          <mxGeometry x="680" y="150" width="30" height="60" as="geometry" />
        </mxCell>
        <mxCell id="ydIn-zL5KML8uVx8zcCh-5" value="Login / Log-out" style="ellipse;whiteSpace=wrap;html=1;" vertex="1" parent="1">
          <mxGeometry x="330" y="70" width="140" height="70" as="geometry" />
        </mxCell>
        <mxCell id="ydIn-zL5KML8uVx8zcCh-6" value="Manage Inventory Manager" style="ellipse;whiteSpace=wrap;html=1;" vertex="1" parent="1">
          <mxGeometry x="330" y="330" width="140" height="70" as="geometry" />
        </mxCell>
        <mxCell id="ydIn-zL5KML8uVx8zcCh-7" value="Place Order" style="ellipse;whiteSpace=wrap;html=1;" vertex="1" parent="1">
          <mxGeometry x="330" y="230" width="140" height="70" as="geometry" />
        </mxCell>
        <mxCell id="ydIn-zL5KML8uVx8zcCh-8" value="Send Notification" style="ellipse;whiteSpace=wrap;html=1;" vertex="1" parent="1">
          <mxGeometry x="330" y="145" width="140" height="70" as="geometry" />
        </mxCell>
        <mxCell id="ydIn-zL5KML8uVx8zcCh-9" value="" style="edgeStyle=none;html=1;endArrow=none;verticalAlign=bottom;" edge="1" parent="1" source="ydIn-zL5KML8uVx8zcCh-6" target="ydIn-zL5KML8uVx8zcCh-2">
          <mxGeometry width="160" relative="1" as="geometry">
            <mxPoint x="400" y="350" as="sourcePoint" />
            <mxPoint x="560" y="350" as="targetPoint" />
          </mxGeometry>
        </mxCell>
        <mxCell id="ydIn-zL5KML8uVx8zcCh-11" value="" style="edgeStyle=none;html=1;endArrow=none;verticalAlign=bottom;exitX=0.5;exitY=0.5;exitDx=0;exitDy=0;exitPerimeter=0;entryX=0.011;entryY=0.631;entryDx=0;entryDy=0;entryPerimeter=0;" edge="1" parent="1" source="ydIn-zL5KML8uVx8zcCh-2" target="ydIn-zL5KML8uVx8zcCh-5">
          <mxGeometry width="160" relative="1" as="geometry">
            <mxPoint x="330" y="280" as="sourcePoint" />
            <mxPoint x="330" y="120" as="targetPoint" />
          </mxGeometry>
        </mxCell>
        <mxCell id="ydIn-zL5KML8uVx8zcCh-12" value="" style="edgeStyle=none;html=1;endArrow=none;verticalAlign=bottom;entryX=0.009;entryY=0.609;entryDx=0;entryDy=0;entryPerimeter=0;" edge="1" parent="1" target="ydIn-zL5KML8uVx8zcCh-5">
          <mxGeometry width="160" relative="1" as="geometry">
            <mxPoint x="110" y="80" as="sourcePoint" />
            <mxPoint x="270" y="80" as="targetPoint" />
          </mxGeometry>
        </mxCell>
        <mxCell id="ydIn-zL5KML8uVx8zcCh-13" value="" style="edgeStyle=none;html=1;endArrow=none;verticalAlign=bottom;exitX=0.5;exitY=0.5;exitDx=0;exitDy=0;exitPerimeter=0;entryX=0;entryY=0.5;entryDx=0;entryDy=0;" edge="1" parent="1" source="ydIn-zL5KML8uVx8zcCh-2" target="ydIn-zL5KML8uVx8zcCh-7">
          <mxGeometry width="160" relative="1" as="geometry">
            <mxPoint x="330" y="280" as="sourcePoint" />
            <mxPoint x="370" y="280" as="targetPoint" />
          </mxGeometry>
        </mxCell>
        <mxCell id="ydIn-zL5KML8uVx8zcCh-14" value="" style="edgeStyle=none;html=1;endArrow=none;verticalAlign=bottom;exitX=0.5;exitY=1;exitDx=0;exitDy=0;" edge="1" parent="1" source="ydIn-zL5KML8uVx8zcCh-8" target="ydIn-zL5KML8uVx8zcCh-4">
          <mxGeometry width="160" relative="1" as="geometry">
            <mxPoint x="530" y="164.5" as="sourcePoint" />
            <mxPoint x="690" y="164.5" as="targetPoint" />
          </mxGeometry>
        </mxCell>
      </root>
    </mxGraphModel>
  </diagram>
</mxfile>
